<?xml version="1.0" encoding="UTF-8"?>
<svg width="24px" height="24px" viewBox="0 0 24 24" version="1.1" xmlns="http://www.w3.org/2000/svg" xmlns:xlink="http://www.w3.org/1999/xlink">
    <title>camera</title>
    <defs>
        <path d="M12,15.5 C11.173,15.5 10.5,14.827 10.5,14 C10.5,13.173 11.173,12.5 12,12.5 C12.827,12.5 13.5,13.173 13.5,14 C13.5,14.827 12.827,15.5 12,15.5 M12,10.5 C10.07,10.5 8.5,12.07 8.5,14 C8.5,15.93 10.07,17.5 12,17.5 C13.93,17.5 15.5,15.93 15.5,14 C15.5,12.07 13.93,10.5 12,10.5 M20,18 C20,18.551 19.552,19 19,19 L5,19 C4.448,19 4,18.551 4,18 L4,10 C4,9.449 4.448,9 5,9 L19,9 C19.552,9 20,9.449 20,10 L20,18 Z M10,5.5 C10,5.224 10.225,5 10.5,5 L13.5,5 C13.775,5 14,5.224 14,5.5 L14,7 L10,7 L10,5.5 Z M19,7 L16,7 L16,5.5 C16,4.122 14.879,3 13.5,3 L10.5,3 C9.121,3 8,4.122 8,5.5 L8,7 L5,7 C3.346,7 2,8.346 2,10 L2,18 C2,19.654 3.346,21 5,21 L19,21 C20.654,21 22,19.654 22,18 L22,10 C22,8.346 20.654,7 19,7 L19,7 Z" id="path-1"></path>
    </defs>
    <g id="camera" stroke="none" stroke-width="1" fill="none" fill-rule="evenodd">
        <mask id="mask-2" fill="white">
            <use xlink:href="#path-1"></use>
        </mask>
        <use id="🎨-Icon-Сolor" fill="#0D1C2E" fill-rule="nonzero" xlink:href="#path-1"></use>
    </g>
</svg>