<?xml version="1.0" encoding="UTF-8"?>
<svg width="24px" height="24px" viewBox="0 0 24 24" version="1.1" xmlns="http://www.w3.org/2000/svg" xmlns:xlink="http://www.w3.org/1999/xlink">
     <title>close-circle</title>
    <desc>Created with Sketch.</desc>
    <defs>
        <path d="M14.707,9.293 C14.316,8.902 13.684,8.902 13.293,9.293 L12,10.586 L10.707,9.293 C10.316,8.902 9.684,8.902 9.293,9.293 C8.902,9.684 8.902,10.316 9.293,10.707 L10.586,12 L9.293,13.293 C8.902,13.684 8.902,14.316 9.293,14.707 C9.488,14.902 9.744,15 10,15 C10.256,15 10.512,14.902 10.707,14.707 L12,13.414 L13.293,14.707 C13.488,14.902 13.744,15 14,15 C14.256,15 14.512,14.902 14.707,14.707 C15.098,14.316 15.098,13.684 14.707,13.293 L13.414,12 L14.707,10.707 C15.098,10.316 15.098,9.684 14.707,9.293 M12,20 C7.589,20 4,16.411 4,12 C4,7.589 7.589,4 12,4 C16.411,4 20,7.589 20,12 C20,16.411 16.411,20 12,20 M12,2 C6.486,2 2,6.486 2,12 C2,17.514 6.486,22 12,22 C17.514,22 22,17.514 22,12 C22,6.486 17.514,2 12,2" id="path-1"></path>
    </defs>
    <g id="close-circle" stroke="none" stroke-width="1" fill="none" fill-rule="evenodd">
        <mask id="mask-2" fill="white">
            <use xlink:href="#path-1"></use>
        </mask>
        <use id="🎨-Icon-Сolor" fill="#0D1C2E" fill-rule="nonzero" xlink:href="#path-1"></use>
    </g>
</svg>