<?xml version="1.0" encoding="utf-8"?>
<!-- Svg Vector Icons : http://www.onlinewebfonts.com/icon -->
<!DOCTYPE svg PUBLIC "-//W3C//DTD SVG 1.1//EN" "http://www.w3.org/Graphics/SVG/1.1/DTD/svg11.dtd">
<svg version="1.1" xmlns="http://www.w3.org/2000/svg" xmlns:xlink="http://www.w3.org/1999/xlink" x="0px" y="0px" viewBox="0 0 1000 1000" enable-background="new 0 0 1000 1000" xml:space="preserve">
<metadata> Svg Vector Icons : http://www.onlinewebfonts.com/icon </metadata>
<g><path d="M95.7,850.1c-47.2,0-85.7-40.3-85.7-89.9V239.9c0-49.6,38.4-90,85.7-90h808.6c47.2,0,85.7,40.4,85.7,90v520.2c0,49.6-38.4,89.9-85.7,89.9H95.7z M871.2,779.6L630.1,570l-38.5,35.4c-25.2,22.9-56,34.5-91.6,34.5c-35.7,0-66.5-11.6-91.5-34.5L370,570L128.9,779.6H871.2z M920.7,730.6V281.4L680,517.9L920.7,730.6z M79.3,730.6L320,517.9L79.3,281.4V730.6z M440.5,527.2c33.8,31.6,51,38.2,59.5,38.2c8.5,0,25.7-6.6,59.5-38.2l313.7-306.8H126.8L440.5,527.2z"/></g>
</svg>