<?xml version="1.0" encoding="UTF-8"?>
<svg width="24px" height="24px" viewBox="0 0 24 24" version="1.1" xmlns="http://www.w3.org/2000/svg" xmlns:xlink="http://www.w3.org/1999/xlink">
     <title>phone-fill</title>
    <defs>
        <path d="M17.3999,22 C8.9079,22 1.9999,15.092 1.9999,6.6 C1.9999,4.063 4.0639,2 6.5999,2 C6.8599,2 7.1169,2.022 7.3659,2.065 C7.6089,2.104 7.8539,2.166 8.0909,2.248 C8.4169,2.361 8.6609,2.634 8.7379,2.97 L10.1079,8.934 C10.1829,9.262 10.0879,9.606 9.8549,9.85 C9.7179,9.992 9.7149,9.995 8.4749,10.644 C9.4789,12.818 11.2239,14.557 13.3549,15.527 C14.0039,14.286 14.0079,14.282 14.1499,14.146 C14.3949,13.912 14.7399,13.821 15.0669,13.893 L21.0309,15.262 C21.3659,15.339 21.6389,15.583 21.7519,15.908 C21.8339,16.144 21.8949,16.388 21.9359,16.639 C21.9779,16.886 21.9999,17.142 21.9999,17.4 C21.9999,19.937 19.9369,22 17.3999,22" id="path-1"></path>
    </defs>
    <g id="phone-fill" stroke="none" stroke-width="1" fill="none" fill-rule="evenodd">
        <mask id="mask-2" fill="white">
            <use xlink:href="#path-1"></use>
        </mask>
        <use id="🎨-Icon-Сolor" fill="#0D1C2E" fill-rule="nonzero" xlink:href="#path-1"></use>
    </g>
</svg>