<?xml version="1.0" encoding="utf-8"?>
<!DOCTYPE svg PUBLIC "-//W3C//DTD SVG 1.1//EN" "http://www.w3.org/Graphics/SVG/1.1/DTD/svg11.dtd">
<svg version="1.1" xmlns="http://www.w3.org/2000/svg" xmlns:xlink="http://www.w3.org/1999/xlink" x="0px" y="0px" viewBox="0 0 1000 1000" enable-background="new 0 0 1000 1000" xml:space="preserve">

<g><g transform="matrix(1 0 0 -1 0 1638)"><path d="M500,648.3c-32.9,0-65,3.1-96.4,9.3s-61.8,15.4-91.2,27.4c-29.4,12.1-57.4,27.1-84.1,45.1c-26.7,18-51.6,38.5-74.8,61.7c-23.2,22.8-43.6,47.7-61.4,74.5c-17.8,26.9-32.8,54.9-45.1,84.1c-12.3,29.2-21.5,59.6-27.7,91.2c-6.2,31.6-9.3,63.6-9.3,96.2c0,32.9,3.1,65,9.3,96.4s15.4,61.8,27.7,91.2c12.3,29.4,27.3,57.4,45.1,84.1c17.8,26.7,38.3,51.6,61.4,74.8c23.2,23.2,48.1,43.6,74.8,61.4c26.7,17.8,54.7,32.8,84.1,45.1c29.4,12.3,59.8,21.5,91.2,27.7s63.5,9.3,96.4,9.3c32.6,0,64.6-3.1,96.2-9.3c31.6-6.2,62-15.4,91.4-27.7s57.4-27.3,84.1-45.1c26.7-17.8,51.6-38.3,74.8-61.4c23.2-23.2,43.6-48.1,61.4-74.8c17.8-26.7,32.7-54.7,44.8-84.1c12.1-29.4,21.3-59.8,27.7-91.2s9.6-63.5,9.6-96.4c0-32.6-3.2-64.6-9.6-96.2c-6.4-31.6-15.6-61.9-27.7-91.2c-12.1-29.2-27-57.2-44.8-84.1c-17.8-26.9-38.3-51.7-61.4-74.5c-23.2-23.2-48.1-43.7-74.8-61.7c-26.7-18-54.7-33-84.1-45.1c-29.4-12.1-59.8-21.2-91.4-27.4C564.6,651.4,532.6,648.3,500,648.3L500,648.3z M500,1576.4c-60.4,0-117.3-11.5-170.5-34.5c-53.2-23-99.7-54.4-139.5-94.2s-71.2-86.3-94.2-139.5c-23-53.2-34.5-110-34.5-170.5s11.5-117.3,34.5-170.5c23-53.2,54.4-99.6,94.2-139.2s86.3-70.9,139.5-93.9s110-34.5,170.5-34.5s117.3,11.5,170.5,34.5s99.6,54.3,139.2,93.9c39.6,39.6,70.9,86,93.9,139.2c23,53.2,34.5,110,34.5,170.5s-11.5,117.3-34.5,170.5c-23,53.2-54.3,99.7-93.9,139.5c-39.6,39.8-86,71.2-139.2,94.2C617.3,1564.9,560.4,1576.4,500,1576.4L500,1576.4z M396.8,931.8c-3.4,0-6.6,0.6-9.8,1.8c-3.2,1.2-6,3.1-8.3,5.8L224,1093.9c-5,5-7.6,11.1-7.6,18.1c0,7.1,2.5,13.1,7.6,18.1s11.1,7.6,18.1,7.6s13.1-2.5,18.1-7.6l136.5-136.5l342.9,342.9c5,5,11.1,7.6,18.1,7.6s13.1-2.5,18.1-7.6c5-5,7.6-11.1,7.6-18.1s-2.5-13.1-7.6-18.1L414.9,939.3c-2.3-2.7-5.1-4.6-8.3-5.8C403.4,932.4,400.1,931.8,396.8,931.8L396.8,931.8z"/></g></g>
</svg>